# xmcd CD database file
#
# Track frame offsets:
#	150
#	18311
#	38760
#	52005
#	64902
#	81888
#	97014
#	120337
#	146050
#	171065
#	199689
#	216540
#	234223
#	263002
#	272711
#	288227
#	300730
#	319295
#	333073
#
# Disc length: 4701 seconds
#
# Revision: 12
# Processed by: cddbd v1.5.2PL0 Copyright (c) Steve Scherf et al.
# Submitted via: CDex 1.70beta2
#
DISCID=12125b13
DTITLE=Best Jazz 100 Piano Standards Disc.2 - リラックス・スタンダーズ
DYEAR=2006
DGENRE=Jazz Piano
TTITLE0=ベサメ・ムーチョ - ザ・スリー・サウンズ
TTITLE1=アイ・ラヴ・ユー - デューク・ピアソン
TTITLE2=昔はよかったね - デューク・エリントン
TTITLE3=ブルー・スカイ - アート・テイタム
TTITLE4=イエスタデイズ - エディ・コスタ
TTITLE5=ゴールデン・イヤリングス - フィニアス・ニューボーン
TTITLE6=飾りのついた四輪馬車 - マッコイ・タイナー
TTITLE7=縁は異なもの - ジャッキー・テラソン
TTITLE8=シャイニー・ストッキングス - ベニー・グリーン
TTITLE9=キャラヴァン - 大西順子
TTITLE10=ウェイヴ - イリアーヌ
TTITLE11=オン・ア・スロー・ボート・トゥ・チャイナ - ビル・チャーラップ
TTITLE12=降っても晴れても - ホレス・パーラン
TTITLE13=ニューヨークの秋 - ボビー・ティモンズ 
TTITLE14=アイ・ヒア・ミュージック - ハンプトン・ホース
TTITLE15=ラヴァー・マン - ルー・レヴィー
TTITLE16=恋とは何でしょう - ジョージ・シアリング
TTITLE17=ドント・ゲット・アラウンド・マッチ・エニモア - クロード・ウィリアムソン
TTITLE18=時さえ忘れて - ソニー・クラーク
EXTD=YEAR: 2006
EXTT0=
EXTT1=
EXTT2=
EXTT3=
EXTT4=
EXTT5=
EXTT6=
EXTT7=
EXTT8=
EXTT9=
EXTT10=
EXTT11=
EXTT12=
EXTT13=
EXTT14=
EXTT15=
EXTT16=
EXTT17=
EXTT18=
PLAYORDER=
